<?xml version="1.0" encoding="UTF-8"?>
<svg version="1.1" xmlns="http://www.w3.org/2000/svg" width="204" height="201">
<path d="M0 0 C2.375 1.5625 2.375 1.5625 4 4 C4.61673435 8.16295685 4.29259654 10.40310306 2.4375 14.1875 C0 17 0 17 -3.375 18.5625 C-11.38748301 22.70570703 -13.8672774 36.12523973 -16.83203125 44.03125 C-18.32679657 47.83065348 -20.09071549 51.3935737 -22 55 C-20.741875 55.350625 -19.48375 55.70125 -18.1875 56.0625 C-5.04061865 60.54065646 7.80563638 71.23543705 14.03515625 83.76953125 C14.35355469 84.50558594 14.67195312 85.24164063 15 86 C15.51820313 87.0828125 16.03640625 88.165625 16.5703125 89.28125 C20.64249127 99.87336526 19.98731622 113.86458182 15.6328125 124.265625 C13.45291739 128.75555821 11.28513362 133.20464127 8 137 C7.34 137 6.68 137 6 137 C5.773125 137.5775 5.54625 138.155 5.3125 138.75 C3.65948561 141.58373895 1.60357787 143.03144113 -1 145 C-1.44859375 145.46535156 -1.8971875 145.93070313 -2.359375 146.41015625 C-15.51454042 159.15813798 -34.96285455 162.36621897 -52.54638672 162.30493164 C-63.53672402 162.04632091 -74.02581804 159.64988554 -84 155 C-85.02480469 154.55527344 -85.02480469 154.55527344 -86.0703125 154.1015625 C-99.7490239 147.82544786 -110.64623355 136.14418762 -117.1015625 122.70703125 C-121.32109835 111.25118859 -120.25272288 97.58942741 -115.35546875 86.62890625 C-113.76631131 83.54676516 -112.11345301 80.75389332 -110 78 C-109.57074219 77.37867187 -109.14148438 76.75734375 -108.69921875 76.1171875 C-102.36446528 67.13583891 -94.75778074 61.89682747 -85 57 C-87.1511642 52.41881698 -89.31242289 47.84312407 -91.49609375 43.27734375 C-93.07394802 39.97501243 -94.6078663 36.65929713 -96.09765625 33.31640625 C-96.75211075 31.8982097 -97.40703384 30.48022926 -98.0625 29.0625 C-98.34158203 28.40765625 -98.62066406 27.7528125 -98.90820312 27.078125 C-101.11169355 22.41595149 -103.55633271 20.75923545 -108.14428711 18.88916016 C-111.41863127 17.3202664 -112.53579143 15.23346059 -114 12 C-114.29796269 8.96574664 -114.24289287 6.03616083 -114 3 C-113.34 3 -112.68 3 -112 3 C-112 2.34 -112 1.68 -112 1 C-102.93023256 0.69767442 -102.93023256 0.69767442 -100 3 C-96.7738855 6.5948133 -95.86946308 9.12728637 -95.8125 13.8125 C-95.35056904 21.74052436 -91.16847462 28.01763184 -87.29345703 34.75097656 C-85.97712465 37.03977495 -84.68677527 39.34160431 -83.40234375 41.6484375 C-81.28663051 45.44294115 -79.14943993 49.22450623 -77 53 C-76.27941406 52.7834375 -75.55882812 52.566875 -74.81640625 52.34375 C-66.53423147 50.19615126 -58.71927237 49.69752043 -50.1875 49.6875 C-48.59627319 49.67976563 -48.59627319 49.67976563 -46.97290039 49.671875 C-40.686118 49.7270179 -35.08299839 50.40456364 -29 52 C-26.99730681 47.83552296 -25.02351681 43.65887815 -23.07348633 39.46948242 C-22.40875277 38.05124505 -21.73674346 36.63639109 -21.05688477 35.2253418 C-17.08255725 26.96284687 -14.2109891 20.05471309 -14.25732422 10.68530273 C-13.88877614 6.83932521 -12.14859269 4.82808709 -9.47265625 2.171875 C-6.35290218 -0.31068792 -3.92459328 -0.39245933 0 0 Z M-42.625 88.3125 C-43.800625 89.6428125 -43.800625 89.6428125 -45 91 C-45.7425 91.825 -46.485 92.65 -47.25 93.5 C-50.44305595 99.8861119 -50.52762712 106.97813559 -49.3125 113.9375 C-46.29618113 120.97557737 -42.26876848 124.82082101 -36 129 C-29.06158893 130.89893356 -18.84645647 131.53230046 -12 128.875 C-6.12296386 125.20185241 -0.073177 120.93483768 2 114 C3.19466086 105.5646555 2.47197708 98.61573584 -2.109375 91.34765625 C-7.185729 85.04416709 -13.28598155 82.21428617 -21.2265625 81.11328125 C-29.22121632 80.78673905 -36.59074019 82.99660445 -42.625 88.3125 Z M-90.875 100.0625 C-94.47675075 105.04139074 -94.67107526 108.94168165 -94 115 C-91.81563846 119.36872308 -89.19647982 122.48211211 -85 125 C-79.33700032 126.46107525 -74.44597005 126.26059134 -69 124 C-65.68284535 121.76053845 -63.23547431 119.35321146 -61 116 C-60.13260402 110.8595375 -60.44285526 106.21408467 -63 101.625 C-65.90026857 97.57773256 -69.26148917 95.44057977 -74 94 C-80.73514314 93.17287716 -86.41645902 94.82243316 -90.875 100.0625 Z " fill="#F5F7F9" transform="translate(155,21)"/>
<path d="M0 0 C2.375 1.5625 2.375 1.5625 4 4 C4.61673435 8.16295685 4.29259654 10.40310306 2.4375 14.1875 C0 17 0 17 -3.375 18.5625 C-11.40577153 22.71516391 -13.96553314 36.27531378 -16.82421875 44.22265625 C-17.94065273 46.85981425 -19.17645509 48.808593 -21 51 C-20.67 48.69 -20.34 46.38 -20 44 C-22.33075929 44.95865509 -22.33075929 44.95865509 -24 48 C-24.66 48 -25.32 48 -26 48 C-24.34162833 42.61148002 -22.39411109 37.54330487 -19.94287109 32.46801758 C-16.3459615 24.99707024 -14.44885232 19.12315306 -14.33203125 10.72265625 C-13.79499946 6.31899558 -11.39207292 3.69926227 -8 1 C-5.15916359 -0.42041821 -3.14522722 -0.31452272 0 0 Z " fill="#E9EFF3" transform="translate(155,21)"/>
<path d="M0 0 C9.06976744 -0.30232558 9.06976744 -0.30232558 12 2 C16.11665784 6.58713303 16.34410908 10.36794628 16.6484375 16.23828125 C17.1771912 20.39193531 19.00910997 23.35003495 21 27 C20.67 27.66 20.34 28.32 20 29 C19.01 29.33 18.02 29.66 17 30 C17.350625 30.598125 17.70125 31.19625 18.0625 31.8125 C19 34 19 34 18 37 C17.5153125 35.89140625 17.030625 34.7828125 16.53125 33.640625 C15.85548753 32.17647298 15.17832955 30.71296448 14.5 29.25 C14.18546875 28.52039063 13.8709375 27.79078125 13.546875 27.0390625 C11.18741878 22.04790512 8.99342619 19.88336041 3.8359375 17.84741211 C0.55053216 16.33097036 -0.54521196 14.21265691 -2 11 C-2.29796269 7.96574664 -2.24289287 5.03616083 -2 2 C-1.34 2 -0.68 2 0 2 C0 1.34 0 0.68 0 0 Z " fill="#E9EFF5" transform="translate(43,22)"/>
<path d="M0 0 C2.3125 1.125 2.3125 1.125 4 3 C5.31691698 7.32701295 5.10546291 10.01070185 3 14 C1 16 1 16 -2.875 16.375 C-5.80850708 16.27899431 -6.91241536 16.05255079 -9.5 14.5 C-11.61136591 10.98105682 -11.94237143 7.99893269 -11 4 C-7.71493877 0.13522209 -4.98306141 -0.74215808 0 0 Z " fill="#EAEFF1" transform="translate(129,120)"/>
<path d="M0 0 C2 1.5625 2 1.5625 3 4 C2.875 7.625 2.875 7.625 2 11 C-1.24633524 13.1642235 -2.24301443 13.37569856 -6 13 C-9 11 -9 11 -9.75 8.125 C-9.97301955 5.33725559 -10.04545375 3.56611376 -9 1 C-5.9167365 -0.54163175 -3.39121901 -0.29747535 0 0 Z " fill="#F9FCFC" transform="translate(84,127)"/>
<path d="M0 0 C0.66 0.33 1.32 0.66 2 1 C1.67 1.66 1.34 2.32 1 3 C-0.216875 2.87625 -1.43375 2.7525 -2.6875 2.625 C-6.34597616 2.65094664 -6.8997541 2.91895012 -9.9375 5.375 C-12.86008845 9.45485501 -12.89406094 14.1268032 -13 19 C-13.33 19 -13.66 19 -14 19 C-14.91501926 9.62952503 -14.91501926 9.62952503 -12.734375 5.74609375 C-8.69029486 1.0443598 -6.31735054 -0.26322294 0 0 Z " fill="#ABBBD3" transform="translate(155,21)"/>
<path d="M0 0 C0.66 0.33 1.32 0.66 2 1 C1.649375 1.515625 1.29875 2.03125 0.9375 2.5625 C-0.37275033 5.96915087 0.2818956 8.47476024 1 12 C1.33 12.66 1.66 13.32 2 14 C2.99 14.33 3.98 14.66 5 15 C5.33 15.66 5.66 16.32 6 17 C8.01669827 18.13350534 8.01669827 18.13350534 10 19 C9.34 19.33 8.68 19.66 8 20 C3.28922734 17.77308929 -0.08669916 16.06461987 -2 11 C-2.2236238 7.98107864 -2.17765745 5.02017669 -2 2 C-1.34 2 -0.68 2 0 2 C0 1.34 0 0.68 0 0 Z " fill="#A9B7D2" transform="translate(43,22)"/>
<path d="M0 0 C0.66 0.33 1.32 0.66 2 1 C1.67 1.99 1.34 2.98 1 4 C1.84958898 7.3983559 2.89275334 10.67826002 4 14 C-0.875 12.25 -0.875 12.25 -2 10 C-2.16796875 8.125 -2.16796875 8.125 -2.1875 6 C-2.20167969 5.29875 -2.21585937 4.5975 -2.23046875 3.875 C-2 2 -2 2 0 0 Z " fill="#AEBDD5" transform="translate(120,122)"/>
<path d="M0 0 C0.66 1.32 1.32 2.64 2 4 C1.34 3.67 0.68 3.34 0 3 C-1.37342831 2.9310528 -2.75002102 2.91532292 -4.125 2.9375 C-5.40375 2.958125 -6.6825 2.97875 -8 3 C-7.67 5.64 -7.34 8.28 -7 11 C-7.66 11 -8.32 11 -9 11 C-10.36176066 4.34250344 -10.36176066 4.34250344 -9 1 C-6.04335481 -0.4783226 -3.25770263 -0.06032783 0 0 Z " fill="#A6B5CB" transform="translate(84,127)"/>
<path d="M0 0 C0.33 0 0.66 0 1 0 C0.6875 3.375 0.6875 3.375 0 7 C-3.22791555 9.1519437 -4.28400809 9.20086443 -8 9 C-8.33 8.34 -8.66 7.68 -9 7 C-6.36 6.67 -3.72 6.34 -1 6 C-0.67 4.02 -0.34 2.04 0 0 Z " fill="#9AABC6" transform="translate(86,131)"/>
<path d="M0 0 C0 3.62453269 -0.92469613 5.07920195 -3 8 C-3.99 8.33 -4.98 8.66 -6 9 C-6.73323796 11.01508358 -6.73323796 11.01508358 -7 13 C-7.33 12.01 -7.66 11.02 -8 10 C-6.34765625 7.51953125 -6.34765625 7.51953125 -4.0625 4.8125 C-3.31097656 3.91144531 -2.55945312 3.01039062 -1.78515625 2.08203125 C-0.90150391 1.05142578 -0.90150391 1.05142578 0 0 Z " fill="#C8D9E8" transform="translate(50,93)"/>
<path d="M0 0 C-0.33 0.99 -0.66 1.98 -1 3 C-6.28 3 -11.56 3 -17 3 C-17 2.67 -17 2.34 -17 2 C-14.54187409 1.66507287 -12.08352273 1.3319903 -9.625 1 C-8.92632812 0.90460938 -8.22765625 0.80921875 -7.5078125 0.7109375 C-2.2265625 0 -2.2265625 0 0 0 Z " fill="#7C88AE" transform="translate(145,149)"/>
<path d="M0 0 C0.66 0.33 1.32 0.66 2 1 C2.2954439 6.02254631 1.98514628 8.89542386 -1 13 C-2.40742022 10.18515955 -1.66652164 8.43063887 -1.0625 5.375 C-0.86785156 4.37210938 -0.67320312 3.36921875 -0.47265625 2.3359375 C-0.31667969 1.56507812 -0.16070312 0.79421875 0 0 Z " fill="#B3C3DA" transform="translate(157,24)"/>
<path d="M0 0 C0.66 0.33 1.32 0.66 2 1 C-3.14285714 6.57142857 -3.14285714 6.57142857 -7 7 C-5.66667905 3.00003714 -3.5042173 2.16217663 0 0 Z " fill="#C7DAE7" transform="translate(61,83)"/>
<path d="M0 0 C0.66 0.33 1.32 0.66 2 1 C1.25 3.875 1.25 3.875 0 7 C-1.98 7.99 -1.98 7.99 -4 9 C-2.68 6.03 -1.36 3.06 0 0 Z " fill="#C8D4E1" transform="translate(137,49)"/>
<path d="M0 0 C0.99 0.33 1.98 0.66 3 1 C3.95685425 5.21015871 4.13181214 7.25712373 2 11 C1.93941406 10.37351563 1.87882813 9.74703125 1.81640625 9.1015625 C1.73261719 8.28429687 1.64882812 7.46703125 1.5625 6.625 C1.48128906 5.81289062 1.40007812 5.00078125 1.31640625 4.1640625 C1.10909886 1.95727195 1.10909886 1.95727195 0 0 Z " fill="#AEBECE" transform="translate(130,122)"/>
<path d="M0 0 C1.24675325 4.98701299 1.24675325 4.98701299 0 8 C-0.99 8.33 -1.98 8.66 -3 9 C-2.01 6.03 -1.02 3.06 0 0 Z " fill="#CCDAE7" transform="translate(132,60)"/>
</svg>
